<?xml version="1.0" encoding="UTF-8"?>
<svg xmlns="http://www.w3.org/2000/svg" id="Layer_1" viewBox="0 0 42.78 21.91">
  <defs>
    <style>.cls-1{fill:#003467;}</style>
  </defs>
  <path class="cls-1" d="M21.39,21.91c11.81,0,21.39-4.9,21.39-10.95S33.2,0,21.39,0,0,4.9,0,10.95s9.58,10.95,21.39,10.95M25.42,16.53c-.36.83-.97,2.6-2.38,3.3-.43.21-.95.32-1.43.33-.11,0-.18,0-.21,0-3.95,0-7.62-.55-10.7-1.48-.03,0-.1-.04-.12-.05-.28-.09-.43-.23-.43-.39,0-.14.07-.25.17-.35.04-.04.11-.1.19-.17.71-.59,2.85-2.14,6.88-3.68,1.41-.54,3.18-1.21,5.03-1.61,1.09-.23,5.11-.84,2.98,4.1M36.22,5.49c.07-.13.18-.24.36-.26.1,0,.24.02.45.14,2.51,1.55,4,3.48,4,5.57,0,3.78-4.86,7.02-11.8,8.44-.45.09-.74.09-.84-.03-.07-.07-.09-.19,0-.34.04-.08.09-.15.19-.26,3.78-4.46,6.66-11.03,7.48-12.93.06-.13.12-.26.17-.35M17.43,5.35c.35-.83.97-2.59,2.38-3.29.43-.21.96-.32,1.43-.33.11,0,.18,0,.21,0,3.95,0,7.62.55,10.7,1.49.02,0,.09.04.12.04.28.1.43.23.43.39,0,.14-.08.25-.17.35-.04.04-.11.1-.2.17-.71.6-2.85,2.14-6.88,3.68-1.42.54-3.18,1.21-5.03,1.61-1.09.23-5.12.84-2.99-4.1M13.55,2.51c.45-.08.74-.08.85.03.06.07.08.19,0,.34-.05.08-.1.15-.18.26-3.78,4.46-6.66,11.03-7.48,12.93-.06.13-.12.26-.17.35-.07.13-.18.24-.36.26-.1,0-.24-.02-.45-.15-2.51-1.55-4-3.48-4-5.57C1.74,7.17,6.6,3.93,13.55,2.51"></path>
</svg>
