<svg xmlns="http://www.w3.org/2000/svg" width="223" height="256" viewBox="0 0 223 256" fill="none"><path d="M210.931 38.3243C205.553 31.2937 202.591 22.5517 202.591 13.7002V10.0135C202.591 5.26743 198.733 1.40649 193.984 1.40649H61.7289C56.9828 1.40649 53.1219 5.26743 53.1219 10.0135V13.7031C53.1219 22.5546 50.1601 31.2965 44.779 38.3271C38.2963 46.802 34.7248 57.348 34.7248 68.0175V71.1029V184.613V187.698C34.7248 198.371 38.2963 208.914 44.7818 217.392C50.1601 224.419 53.1219 233.161 53.1219 242.013V245.697C53.1219 250.446 56.9828 254.309 61.7317 254.309H193.979C198.728 254.309 202.591 250.448 202.591 245.697V242.013C202.591 233.161 205.553 224.419 210.931 217.389C217.414 208.914 220.986 198.371 220.986 187.698V184.613V71.1029V68.0175C220.988 57.3452 217.414 46.7992 210.931 38.3243ZM175.171 222.09H80.5418C59.8771 222.09 43.0649 205.278 43.0649 184.613V71.1029C43.0649 50.4382 59.8771 33.626 80.5418 33.626H175.174C195.839 33.626 212.651 50.4382 212.651 71.1029V184.613C212.648 205.275 195.836 222.09 175.171 222.09ZM61.4591 10.0135C61.4591 9.86459 61.58 9.74376 61.7289 9.74376H193.984C194.133 9.74376 194.254 9.86459 194.254 10.0135V13.7031C194.254 19.6799 195.412 25.6006 197.536 31.1588C190.913 27.4355 183.292 25.2887 175.171 25.2887H80.5418C72.4209 25.2887 64.8002 27.4355 58.1799 31.156C60.3042 25.6006 61.4619 19.6771 61.4619 13.7002L61.4591 10.0135ZM194.254 245.694C194.254 245.846 194.133 245.969 193.979 245.969H61.7345C61.5828 245.969 61.4619 245.848 61.4619 245.694V242.01C61.4619 236.033 60.3042 230.11 58.1799 224.557C64.8002 228.277 72.4209 230.424 80.5418 230.424H175.174C183.295 230.424 190.916 228.277 197.539 224.554C195.415 230.11 194.257 236.033 194.257 242.01L194.254 245.694Z" fill="white"></path><path d="M148.701 205.733H107.012C104.708 205.733 102.842 203.867 102.842 201.563C102.842 199.259 104.708 197.393 107.012 197.393H148.698C151 197.393 152.868 199.259 152.868 201.563C152.868 203.867 151.003 205.733 148.701 205.733Z" fill="white"></path><path d="M161.846 84.3269C154.709 84.3269 148.901 78.5186 148.901 71.3812C148.901 64.2438 154.709 58.4355 161.846 58.4355C168.987 58.4355 174.795 64.2438 174.795 71.3812C174.795 78.5186 168.987 84.3269 161.846 84.3269ZM161.846 66.77C159.306 66.77 157.238 68.8382 157.238 71.3784C157.238 73.9186 159.306 75.9868 161.846 75.9868C164.389 75.9868 166.458 73.9186 166.458 71.3784C166.458 68.8382 164.389 66.77 161.846 66.77Z" fill="white"></path><path d="M134.247 175.744C133.645 175.744 133.033 175.615 132.457 175.337C130.377 174.345 129.498 171.858 130.487 169.782L148.415 132.203L134.657 123.596C132.844 122.461 132.184 120.14 133.128 118.221L147.043 89.9917C148.063 87.9263 150.567 87.0749 152.627 88.0949C154.692 89.1121 155.541 91.6102 154.524 93.6756L142.272 118.527L155.988 127.106C157.783 128.23 158.452 130.52 157.536 132.434L138.009 173.37C137.295 174.871 135.803 175.744 134.247 175.744Z" fill="white"></path><path d="M112.354 175.744C111.753 175.744 111.14 175.615 110.561 175.337C108.485 174.345 107.602 171.858 108.594 169.782L125.954 133.381C126.946 131.304 129.441 130.422 131.512 131.414C133.592 132.406 134.474 134.893 133.479 136.969L116.119 173.37C115.406 174.868 113.911 175.744 112.354 175.744Z" fill="white"></path><path d="M168.087 115.133C166.725 115.133 165.44 114.467 164.659 113.337L159.241 105.506C157.932 103.612 158.407 101.015 160.298 99.7059C162.186 98.3964 164.786 98.8685 166.098 100.762L167.421 102.676L171.797 93.5042C172.789 91.4276 175.278 90.5481 177.352 91.5372C179.431 92.5291 180.314 95.016 179.319 97.0954L171.847 112.758C171.206 114.102 169.9 115.001 168.419 115.119C168.309 115.127 168.197 115.133 168.087 115.133Z" fill="white"></path><path d="M122.352 99.0315C121.75 99.0315 121.138 98.8995 120.559 98.6241C118.482 97.6322 117.6 95.1453 118.592 93.0659L126.064 77.403C126.575 76.3296 127.522 75.5287 128.66 75.1943C129.801 74.8599 131.029 75.0313 132.038 75.6636L140.336 80.8537C142.286 82.076 142.879 84.6472 141.657 86.5973C140.434 88.5531 137.863 89.1403 135.91 87.9208L131.577 85.2092L126.117 96.6543C125.403 98.1548 123.909 99.0315 122.352 99.0315Z" fill="white"></path><path d="M111.41 121.455H80.1569C77.8527 121.455 75.9868 119.589 75.9868 117.285C75.9868 114.981 77.8527 113.115 80.1569 113.115H111.41C113.714 113.115 115.58 114.981 115.58 117.285C115.58 119.589 113.714 121.455 111.41 121.455Z" fill="white"></path><path d="M104.927 103.564H80.1569C77.8527 103.564 75.9868 101.698 75.9868 99.3939C75.9868 97.0897 77.8527 95.2239 80.1569 95.2239H104.927C107.231 95.2239 109.097 97.0897 109.097 99.3939C109.097 101.698 107.231 103.564 104.927 103.564Z" fill="white"></path><path d="M104 139.344H80.1569C77.8527 139.344 75.9868 137.478 75.9868 135.174C75.9868 132.872 77.8527 131.004 80.1569 131.004H104C106.304 131.004 108.17 132.87 108.17 135.174C108.17 137.478 106.304 139.344 104 139.344Z" fill="white"></path></svg>