<svg xmlns:inkscape="http://www.inkscape.org/namespaces/inkscape" xmlns:sodipodi="http://sodipodi.sourceforge.net/DTD/sodipodi-0.dtd" xmlns="http://www.w3.org/2000/svg" xmlns:svg="http://www.w3.org/2000/svg" id="svg2" width="755.90533" height="755.90533" viewBox="0 0 755.90533 755.90533" sodipodi:docname="Solo imagotipo AI.ai"><defs id="defs6"><clipPath clipPathUnits="userSpaceOnUse" id="clipPath16"><path d="M 0,566.929 H 566.929 V 0 H 0 Z" id="path14"></path></clipPath></defs><g id="g8" inkscape:groupmode="layer" inkscape:label="Solo imagotipo AI" transform="matrix(1.3333333,0,0,-1.3333333,0,755.90533)"><g id="g10"><g id="g12" clip-path="url(#clipPath16)"><g id="g18" transform="translate(357.2559,191.1567)"><path d="m 0,0 c -2.388,3.389 -6.353,5.378 -10.483,5.079 -2.082,-0.152 -4.184,-0.231 -6.299,-0.231 -48.225,0 -87.458,39.239 -87.458,87.457 0,48.217 39.233,87.457 87.458,87.457 2.035,0 4.057,-0.073 6.06,-0.212 4.137,-0.292 8.103,1.684 10.483,5.078 10.125,14.455 22.557,27.166 36.773,37.596 9.336,6.856 7.154,21.324 -3.886,24.832 l -0.297,0.092 -12.036,48.921 c -1.385,5.563 -6.377,9.468 -12.113,9.468 h -49.974 c -5.737,0 -10.736,-3.905 -12.115,-9.468 0,0 -8.335,-34.141 -12.021,-48.907 -9.82,-3.11 -19.315,-7.148 -28.352,-12.081 l -39.426,23.657 c -4.926,2.931 -11.199,2.176 -15.263,-1.876 l -35.335,-35.334 c -4.045,-4.051 -4.827,-10.351 -1.876,-15.264 l 24.38,-40.718 c -3.931,-7.745 -7.227,-15.807 -9.846,-24.069 l -48.92,-12.068 c -5.563,-1.392 -9.469,-6.378 -9.469,-12.114 V 67.32 c 0,-5.735 3.906,-10.741 9.469,-12.114 l 48.927,-12.034 c 2.97,-9.408 6.823,-18.546 11.497,-27.318 l -21.815,-36.355 c -2.957,-4.92 -2.174,-11.213 1.877,-15.264 l 35.334,-35.335 c 4.038,-4.038 10.337,-4.806 15.264,-1.882 0,0 24.466,14.667 36.448,21.84 8.673,-4.621 17.75,-8.44 27.106,-11.404 l 12.021,-48.907 c 1.379,-5.563 6.378,-9.468 12.115,-9.468 H 8.202 c 5.736,0 10.728,3.905 12.113,9.468 l 12.022,48.907 c 0.093,0.026 0.185,0.06 0.278,0.086 11.107,3.541 13.315,18.308 3.912,25.203 C 22.424,-26.906 10.078,-14.315 0,0" style="fill:#009fe3;fill-opacity:1;fill-rule:nonzero;stroke:none" id="path20"></path></g></g></g></g></svg>